<svg width="21.655" height="21.655" xmlns="http://www.w3.org/2000/svg"><path d="M10.828 0C4.85 0 0 4.85 0 10.828c.002 5.979 4.849 10.825 10.828 10.827 5.977 0 10.827-4.85 10.827-10.827C21.653 4.848 16.807.002 10.828 0zM2.166 10.828a8.674 8.674 0 0 0 8.662 8.662c4.775 0 8.662-3.887 8.662-8.662a8.674 8.674 0 0 0-8.662-8.662c-4.775 0-8.662 3.887-8.662 8.662zm5.467-2.166h.217c.41-.013.772-.268.922-.65.011-.024.021-.05.03-.075a2.175 2.175 0 0 1 2.033-1.435 2.187 2.187 0 0 1 .458.049c1.029.216 1.787 1.223 1.7 2.274-.017.26-.094.512-.223.738-.447.78-1.455 1.196-2.18 2.05a3.492 3.492 0 0 0-.25.333c-.002.008-.01.009-.01.018a.182.182 0 0 1-.007.012l-.02.031a3.602 3.602 0 0 0-.29.583c-.01.017-.02.032-.028.05a.132.132 0 0 0-.002.007.141.141 0 0 0-.01.034l-.009.032a4.386 4.386 0 0 0-.22 1.363h2.166a2.302 2.302 0 0 1 .324-1.195c.01-.02.02-.04.034-.061a2.98 2.98 0 0 1 .309-.43c.009-.01.017-.026.026-.035.11-.131.23-.254.358-.369.134-.126.27-.249.409-.369.92-.804 1.913-1.609 1.77-3.261a4.112 4.112 0 0 0-.025-.224c-.26-1.884-1.743-3.476-3.627-3.758a4.333 4.333 0 0 0-4.796 3.021.982.982 0 0 0 .941 1.267zm2.112 6.497h2.165v2.165H9.745V15.16z" fill-rule="evenodd"/></svg>