<svg width="360.5" height="214.5" xmlns="http://www.w3.org/2000/svg"><g><g><g><g transform="translate(161.75 92.75)"><filter id="a" y="-27%" height="154%" x="-28%" width="156%"><feGaussianBlur in="SourceAlpha" stdDeviation="1.5"/><feOffset result="oBlur"/><feFlood flood-color="#000" flood-opacity="0"/><feComposite in2="oBlur" operator="in"/><feMerge><feMergeNode/><feMergeNode in="SourceGraphic"/></feMerge></filter></g><g><path d="M142 97a5 5 0 0 0 5 5h20a5 5 0 0 0 5-5V77a5 5 0 0 0-5-5h-20a5 5 0 0 0-5 5v20z" fill="#6aaa64" fill-rule="evenodd"/><g><g><text font-family="helvetica" font-size="16" font-weight="700" style="white-space:pre" fill="#fff" fill-rule="evenodd" transform="translate(157.5 91.54)"><tspan x="-6.22" y="5.03">G</tspan></text></g></g></g></g><g><g transform="translate(304.75 122.75)"><filter id="b" y="-28%" height="156%" x="-27%" width="154%"><feGaussianBlur in="SourceAlpha" stdDeviation="1.5"/><feOffset result="oBlur"/><feFlood flood-color="#000" flood-opacity="0"/><feComposite in2="oBlur" operator="in"/><feMerge><feMergeNode/><feMergeNode in="SourceGraphic"/></feMerge></filter></g><g><path d="M252 97a5 5 0 0 0 5 5h18a5 5 0 0 0 5-5V77a5 5 0 0 0-5-5h-18a5 5 0 0 0-5 5v20z" fill="#6aaa64" fill-rule="evenodd"/><g><rect x="-15" y="-6" rx="0" ry="0" width="30" height="12" fill="none" transform="translate(267.5 88.5)"/><g><text font-family="helvetica" font-size="16" font-weight="700" style="white-space:pre" fill="#fff" fill-rule="evenodd" transform="translate(267.5 91.54)"><tspan x="-5.34" y="5.03">S</tspan></text></g></g></g></g><g><g transform="translate(304.75 86.75)"><filter id="c" y="-27%" height="154%" x="-27%" width="154%"><feGaussianBlur in="SourceAlpha" stdDeviation="1.5"/><feOffset result="oBlur"/><feFlood flood-color="#000" flood-opacity="0"/><feComposite in2="oBlur" operator="in"/><feMerge><feMergeNode/><feMergeNode in="SourceGraphic"/></feMerge></filter></g><g transform="translate(266.75 51.75)"><filter id="d" y="-31%" height="162%" x="-31%" width="162%"><feGaussianBlur in="SourceAlpha" stdDeviation="1.5"/><feOffset result="oBlur"/><feFlood flood-color="#000" flood-opacity="0"/><feComposite in2="oBlur" operator="in"/><feMerge><feMergeNode/><feMergeNode in="SourceGraphic"/></feMerge></filter><path transform="translate(-14 -14)" d="M0 22a6 6 0 0 0 6 6h16a6 6 0 0 0 6-6V6a6 6 0 0 0-6-6H6a6 6 0 0 0-6 6v16z" stroke="#d3d6da" stroke-opacity=".502" stroke-width="1.5" fill="#d3d6da" fill-opacity=".502" fill-rule="evenodd" filter="url(#d)"/></g></g><g><g transform="translate(304.75 158.75)"><filter id="e" y="-27%" height="154%" x="-27%" width="154%"><feGaussianBlur in="SourceAlpha" stdDeviation="1.5"/><feOffset result="oBlur"/><feFlood flood-color="#000" flood-opacity="0"/><feComposite in2="oBlur" operator="in"/><feMerge><feMergeNode/><feMergeNode in="SourceGraphic"/></feMerge></filter></g><g transform="translate(266.75 123.75)"><filter id="f" y="-31%" height="162%" x="-31%" width="162%"><feGaussianBlur in="SourceAlpha" stdDeviation="1.5"/><feOffset result="oBlur"/><feFlood flood-color="#000" flood-opacity="0"/><feComposite in2="oBlur" operator="in"/><feMerge><feMergeNode/><feMergeNode in="SourceGraphic"/></feMerge></filter><path transform="translate(-14 -14)" d="M0 22a6 6 0 0 0 6 6h16a6 6 0 0 0 6-6V6a6 6 0 0 0-6-6H6a6 6 0 0 0-6 6v16z" stroke="#d3d6da" stroke-opacity=".502" stroke-width="1.5" fill="#d3d6da" fill-opacity=".502" fill-rule="evenodd" filter="url(#f)"/></g></g><g><g transform="translate(304.75 194.75)"><filter id="g" y="-28%" height="156%" x="-27%" width="154%"><feGaussianBlur in="SourceAlpha" stdDeviation="1.5"/><feOffset result="oBlur"/><feFlood flood-color="#000" flood-opacity="0"/><feComposite in2="oBlur" operator="in"/><feMerge><feMergeNode/><feMergeNode in="SourceGraphic"/></feMerge></filter></g><g transform="translate(266.75 159.75)"><filter id="h" y="-30%" height="160%" x="-31%" width="162%"><feGaussianBlur in="SourceAlpha" stdDeviation="1.5"/><feOffset result="oBlur"/><feFlood flood-color="#000" flood-opacity="0"/><feComposite in2="oBlur" operator="in"/><feMerge><feMergeNode/><feMergeNode in="SourceGraphic"/></feMerge></filter><path transform="translate(-14 -15)" d="M0 24a6 6 0 0 0 6 6h16a6 6 0 0 0 6-6V6a6 6 0 0 0-6-6H6a6 6 0 0 0-6 6v18z" stroke="#d3d6da" stroke-opacity=".502" stroke-width="1.5" fill="#d3d6da" fill-opacity=".502" fill-rule="evenodd" filter="url(#h)"/></g></g><g><g transform="translate(304.75 50.75)"><filter id="i" y="-28%" height="156%" x="-27%" width="154%"><feGaussianBlur in="SourceAlpha" stdDeviation="1.5"/><feOffset result="oBlur"/><feFlood flood-color="#000" flood-opacity="0"/><feComposite in2="oBlur" operator="in"/><feMerge><feMergeNode/><feMergeNode in="SourceGraphic"/></feMerge></filter></g><g transform="translate(266.75 15.75)"><filter id="j" y="-30%" height="160%" x="-31%" width="162%"><feGaussianBlur in="SourceAlpha" stdDeviation="1.5"/><feOffset result="oBlur"/><feFlood flood-color="#000" flood-opacity="0"/><feComposite in2="oBlur" operator="in"/><feMerge><feMergeNode/><feMergeNode in="SourceGraphic"/></feMerge></filter><path transform="translate(-14 -15)" d="M0 24a6 6 0 0 0 6 6h16a6 6 0 0 0 6-6V6a6 6 0 0 0-6-6H6a6 6 0 0 0-6 6v18z" stroke="#d3d6da" stroke-opacity=".502" stroke-width="1.5" fill="#d3d6da" fill-opacity=".502" fill-rule="evenodd" filter="url(#j)"/></g></g><g><g transform="translate(340.75 122.75)"><filter id="k" y="-28%" height="156%" x="-28%" width="156%"><feGaussianBlur in="SourceAlpha" stdDeviation="1.5"/><feOffset result="oBlur"/><feFlood flood-color="#000" flood-opacity="0"/><feComposite in2="oBlur" operator="in"/><feMerge><feMergeNode/><feMergeNode in="SourceGraphic"/></feMerge></filter></g><g><path d="M287 97a5 5 0 0 0 5 5h20a5 5 0 0 0 5-5V77a5 5 0 0 0-5-5h-20a5 5 0 0 0-5 5v20z" fill="#6aaa64" fill-rule="evenodd"/><g><rect x="-15" y="-6" rx="0" ry="0" width="30" height="12" fill="none" transform="translate(302.5 88.5)"/><g><text font-family="helvetica" font-size="16" font-weight="700" style="white-space:pre" fill="#fff" fill-rule="evenodd" transform="translate(302.5 91.54)"><tspan x="-5.34" y="5.03">S</tspan></text></g></g></g></g><g><g transform="translate(198.75 92.75)"><filter id="l" y="-27%" height="154%" x="-28%" width="156%"><feGaussianBlur in="SourceAlpha" stdDeviation="1.5"/><feOffset result="oBlur"/><feFlood flood-color="#000" flood-opacity="0"/><feComposite in2="oBlur" operator="in"/><feMerge><feMergeNode/><feMergeNode in="SourceGraphic"/></feMerge></filter></g><g><path d="M179 97a5 5 0 0 0 5 5h18a5 5 0 0 0 5-5V77a5 5 0 0 0-5-5h-18a5 5 0 0 0-5 5v20z" fill="#6aaa64" fill-rule="evenodd"/><g><rect x="-15" y="-6" rx="0" ry="0" width="30" height="12" fill="none" transform="translate(194.5 88.5)"/><g><text font-family="helvetica" font-size="16" font-weight="700" style="white-space:pre" fill="#fff" fill-rule="evenodd" transform="translate(194.5 91.54)"><tspan x="-5.78" y="5.03">U</tspan></text></g></g></g></g><g><g transform="translate(235.75 92.75)"><filter id="m" y="-27%" height="154%" x="-27%" width="154%"><feGaussianBlur in="SourceAlpha" stdDeviation="1.5"/><feOffset result="oBlur"/><feFlood flood-color="#000" flood-opacity="0"/><feComposite in2="oBlur" operator="in"/><feMerge><feMergeNode/><feMergeNode in="SourceGraphic"/></feMerge></filter></g><g><path d="M215 97a5 5 0 0 0 5 5h20a5 5 0 0 0 5-5V77a5 5 0 0 0-5-5h-20a5 5 0 0 0-5 5v20z" fill="#6aaa64" fill-rule="evenodd"/><g><rect x="-15" y="-6" rx="0" ry="0" width="30" height="12" fill="none" transform="translate(230.5 88.5)"/><g><text font-family="helvetica" font-size="16" font-weight="700" style="white-space:pre" fill="#fff" fill-rule="evenodd" transform="translate(230.5 91.54)"><tspan x="-5.34" y="5.03">E</tspan></text></g></g></g></g></g><g transform="translate(68 86.89)" clip-path="url(#n)"><clipPath id="n"><path transform="translate(-68 -86.89)" d="M0 0h136v173.77H0V0z" stroke-linecap="round"/></clipPath><g clip-path="url(#o)"><clipPath id="o"><path transform="translate(-68 -86.89)" d="M0 0h136v173.77H0V0z" stroke-linecap="round"/></clipPath><g><path d="M63.451-42.3l-.059-.015s-3.646 6.09-2.744 6.09h.106c.906.01 3.743.094 4.93-1.484.237-.317.397-.684.47-1.073.5-2.56-2.261-3.4-2.703-3.518z" fill="#fdd3c9" fill-rule="evenodd"/><path d="M52.875-35.672l-.586 1.074-.317.58.051-.006c.274-.033 1.659-.178 4.235-.144a5.617 5.617 0 0 1 1.04.121c.386.082.764.2 1.13.35a6.06 6.06 0 0 1 1.21.66c.16.113.31.235.453.367h.002c.17.158.334.323.49.495.79.865 1.279 1.753 1.313 2.141.004.053.01.105.016.157.117 1.034.54 4.196-2.863 5.951-.2.103-.404.197-.611.282a7.916 7.916 0 0 1-2.233.544c-1.123.113-2.245.02-3.265-.166-2.319-.424-4.106-1.327-4.161-1.354h-.002l-4.623-.49s9.51 3.91 11.765 5.432a5.163 5.163 0 0 1 2.05 3.379c.234 1.232.133 2.548-.286 3.65-.055.147-.117.291-.185.432-.226.431-.55.803-.945 1.087-1.202.915-3.084 1.449-4.338 1.721-.134.03-.268.058-.403.084-.541.107-.892.153-.892.153.243.255.456.612.628 1.045.332.837.512 1.962.462 3.202-.053 1.322-.998 2.495-2.235 3.231a.014.014 0 0 0-.004.002 5.812 5.812 0 0 1-1.67.676 4.76 4.76 0 0 1-.246.049 14.78 14.78 0 0 1-1.07.133h-.006c-.39.037-.78.069-1.172.096-2.376.167-5.933.296-9.49.457a440.452 440.452 0 0 0-3.07.15 208.563 208.563 0 0 0-2.783.168c-.576.041-1.15.09-1.724.146-1.341.128-2.985.312-4.814.532-.866.105-1.732.212-2.598.321-1.132.144-2.265.29-3.397.44C9.603 2.55.475 3.893-2.643 4.397c-4.63.749-13.896 1.606-19.332 2.891a26.28 26.28 0 0 0-1.567.417c-4.618 1.4-14.68 8.722-18.979 11.99-.328.25-.655.5-.98.752l-1.022.792c-3.787 2.943-10.226 7.985-10.226 7.985l-.069.03c-.89.381-10.119 3.959-12.628-10.162a36.275 36.275 0 0 1-.5-4.459c-.678-13.174 5.31-26.348 8.01-28.857.11-.104.23-.198.357-.28 1.209-.757 2.418-1.511 3.63-2.262 8.012-4.961 16.764-10.169 19.3-10.837l.101-.025a8.725 8.725 0 0 0 1.482-.5c2.992-1.288 6.56-4.273 8.557-6.32a20.11 20.11 0 0 0 .786-.848c1.738-2.005 4.9-7.098 7.06-9.842.243-.31.496-.614.759-.908.209-.237.407-.482.594-.737 2.247-3.011 6.522-10.697 8.015-12.388.08-.094.167-.18.262-.257.171-.131.341-.265.51-.402 1.71-1.38 5.568-4.759 7.383-7.717 2.03-3.308 4.661-4.811 6.54-5.412l.15-.048c.165-.052.374-.115.618-.19l.903-.273a2059.937 2059.937 0 0 1 11.034-3.248c.362-.107.722.017 1.023.33.19.206.342.444.446.704.582 1.366.528 3.91-1.216 6.872-.24.409-.5.806-.779 1.19-.1.138-.2.275-.304.41-3.571 4.713-7.155 5.386-7.626 6.058a.315.315 0 0 0-.038.07c-.066.18-.14.358-.22.533-.937 2.078-3.596 6.452-4.127 7.605a1.382 1.382 0 0 0-.089.226c-.172.743-.248 2.46-.26 2.74l-.002.039c1.24-.564 6.783-.935 6.783-.935l45.501 4.172.08.04c.643.32 5.043 2.555 6.489 4.301.118.14.222.29.31.451.285.535.434 1.13.435 1.736 0 1.473-.874 2.982-2.518 4.053-2.309 1.503-9.118.451-9.118.451zM9.612-61.086v.001" fill="#ffbd94" fill-rule="evenodd"/><path d="M48.775-24.612l-4.623-.489c.045.02.091.038.137.057 1.093.452 8.402 3.49 11.103 5.05.178.103.353.21.525.325a4.044 4.044 0 0 1 .646.542 1.464 1.464 0 0 1 .099.104l.006.006c.06.086.098.186.114.29.33 1.986-5.094 8.632-5.791 9.476l-.074.088-.183 1.198-.961 6.28a.014.014 0 0 0-.004.002 5.817 5.817 0 0 1-1.67.677 4.757 4.757 0 0 1-.246.048c-.211.036-.472.071-.778.104l-.292.03h-.006c-.39.036-.781.068-1.172.095-2.792.196-7.212.34-11.347.545a1850.668 1850.668 0 0 0-1.214.063l-1.353-30.243 20.595-4.224 1.394-.287 2.934.734 1.812.453c.637.262 1.221.617 1.663 1.027h.002c.897.834 1.525 1.791 1.73 2.354.036.09.06.186.072.282.075.865.827 4.624-3.458 6.39-1.8.743-3.792.688-5.497.378-.347-.064-.692-.14-1.034-.226-1.797-.456-3.081-1.105-3.128-1.128h-.001zM17.28-67.213c.102-.136.203-.273.303-.411 2.498-3.462 2.654-6.516 1.995-8.062a2.31 2.31 0 0 0-.446-.704 7.492 7.492 0 0 1-.137 1.004c-.487 2.374-2.153 4.904-5.246 7.536-3.533 3.007-6.315-2.405-5.939-.751 2.356 4.269 1.828 7.386 1.806 7.513a.315.315 0 0 1 .036-.068c.472-.673 4.056-1.345 7.627-6.057zM21.127 1.038L22.35-2.33l-.211-.08C19.752-3.32-2.128-11.53-6.174-9.067c-.402.22-.649.645-.642 1.102-.034 5.592-2.97 4.62-7.932 3.267a6.092 6.092 0 0 0-1.34-.199c-4.685-.202-12.356 3.905-20.028 10.553-.979.849-1.938 1.72-2.877 2.614-6.966 6.631-18.928 14.072-25.939 17.863 3.929 5.997 10.147 3.11 10.18 3.094l11.249-8.778c.418-.324.84-.646 1.261-.965 4.443-3.363 14.178-10.406 18.698-11.777a30.636 30.636 0 0 1 2.449-.615C-16.25 6.057-9.051 5.308-4.402 4.66c.587-.08 1.172-.168 1.757-.261.557-.09 1.114-.177 1.671-.263 4.687-.72 14.395-2.123 22.1-3.098z" fill="#ffa080" fill-rule="evenodd"/><path d="M34.261-.19l6.436-4.657c.027.091.065.179.113.261.555 1.016 2.93 3.762 5.713 3.762.086 0 .171-.002.256-.007-.39.036-.78.068-1.17.095-2.377.167-5.934.296-9.492.458l-1.856.087z" fill="#8c4a2a" fill-rule="evenodd"/><path d="M6.164-73.199c-.37.256-.735.52-1.094.79-1.803 1.361-3.852 3.214-4.981 5.263-.077.14-.15.281-.22.425-.224.46-.463.912-.716 1.356-1.771 3.137-4.844 7.417-6.327 9.47-1.662 2.297-12.061 12.863-12.061 16.894 0 .118.01.236.03.352a8.24 8.24 0 0 0 1.225 3.197c1.208 1.76 3.252 2.681 6.4 1.93.165-.04.33-.083.494-.13 5.028-1.426-2.067 8.39-4.665 8.39-.024 0-.048 0-.071-.002-2.22-.162-8.064-.83-10.285-7.677-.16-.496-.296-.999-.406-1.507a20.1 20.1 0 0 0 .786-.85c1.955-2.255 5.713-8.42 7.819-10.75.209-.236.407-.482.593-.736 2.248-3.012 6.523-10.697 8.016-12.389.079-.093.166-.179.261-.256.172-.132.342-.266.51-.402 1.617-1.306 5.156-4.398 7.07-7.232.109-.16.213-.321.314-.485 1.775-2.893 4.01-4.406 5.801-5.143.243-.1.49-.19.74-.27a50.413 50.413 0 0 1 .767-.238z" fill="#ffa080" fill-rule="evenodd"/><path d="M31.472 5.06L-2.786-6.002a6.476 6.476 0 0 1-4.18-5.98 5.694 5.694 0 0 1 .457-2.367l30.072-69.323a5.345 5.345 0 0 1 6.422-2.997l33.717 9.997a5.328 5.328 0 0 1 3.446 7.054L39.283 1.409a6.26 6.26 0 0 1-7.81 3.651z" fill="#190b2b" fill-rule="evenodd"/><path d="M44.949-18.36l2.128-4.357s5.116 1.379 7.212 3.13c.219.177.415.381.583.607 1.406 1.958-9.153.713-9.883.625a15.697 15.697 0 0 1-.04-.005z" fill="#ffa080" fill-rule="evenodd"/><path d="M31.925 7.138l-34.718-10.7a5.837 5.837 0 0 1-3.304-2.59 5.9 5.9 0 0 1-.76-2.081l-.057-.33c-.18-1.029-.448-2.526-.02-4.223l1.051-.11L23.788-80.85c1.005-2.473 1.873-4.344 4.41-3.704l.09.023 38.16 9.762.015.018c.098.125.66.845 1.015 1.465l.05.09c.24.458.391.959.443 1.474a6.544 6.544 0 0 1-.065 1.81 8.81 8.81 0 0 1-.779 2.406L40.167 3.048a7.067 7.067 0 0 1-6.5 4.346 5.906 5.906 0 0 1-1.742-.256z" fill="#190b2b" fill-rule="evenodd"/><path d="M31.97 3.578L-2.57-7.594a4.253 4.253 0 0 1-2.564-2.327 4.288 4.288 0 0 1-.377-1.77 4.293 4.293 0 0 1 .36-1.693L25.18-83.509a3.776 3.776 0 0 1 4.54-2.118l33.538 10.46a3.72 3.72 0 0 1 2.311 1.956 3.743 3.743 0 0 1 .384 1.766 3.773 3.773 0 0 1-.262 1.258L37.827.84a4.667 4.667 0 0 1-4.37 2.981 4.684 4.684 0 0 1-1.487-.243z" fill="#fff" fill-rule="evenodd"/><g transform="translate(30.25 -40.96)" clip-path="url(#p)"><clipPath id="p"><path transform="translate(-35.73 -44.8)" d="M0 0h71.466v89.605H0V0z" stroke-linecap="round"/></clipPath><path d="M1.75 44.558l-34.54-11.172a4.253 4.253 0 0 1-2.564-2.327 4.288 4.288 0 0 1-.377-1.77 4.293 4.293 0 0 1 .36-1.693L-5.04-42.529A3.776 3.776 0 0 1-.5-44.647l33.538 10.46a3.72 3.72 0 0 1 2.311 1.955 3.743 3.743 0 0 1 .384 1.767 3.773 3.773 0 0 1-.262 1.258L7.606 41.82a4.667 4.667 0 0 1-4.369 2.981 4.684 4.684 0 0 1-1.487-.243z" fill="#fafafa" fill-rule="evenodd" style="stroke:none;stroke-width:0;stroke-dasharray:none;stroke-linecap:butt;stroke-dashoffset:0;stroke-linejoin:miter;stroke-miterlimit:4;fill:#fafafa;fill-rule:evenodd;opacity:1"/></g><path d="M9.033-13.316l25.253 8.129a.542.542 0 0 1 .287.213c.1.15.124.348.045.539L33.05-.642A2.263 2.263 0 0 1 31.016.742a2.01 2.01 0 0 1-.641-.095L6.446-7.056a.542.542 0 0 1-.287-.213.568.568 0 0 1-.045-.538L8.23-12.93a.679.679 0 0 1 .605-.415.602.602 0 0 1 .197.028z" fill="#ffba38" fill-rule="evenodd"/><path d="M1.85-15.626l5.107 1.644a.542.542 0 0 1 .36.67.633.633 0 0 1-.028.082L5.173-8.108a.668.668 0 0 1-.803.386L.587-8.939c-1.045-.337-1.54-1.459-1.108-2.506l1.568-3.794a.668.668 0 0 1 .803-.387z" fill="#fff" fill-rule="evenodd"/><path d="M4.387-12.47a1.31 1.31 0 0 0-.691-.51 1.45 1.45 0 0 0-.469-.07 1.64 1.64 0 0 0-1.47 1.003c-.315.76.045 1.573.802 1.816a1.45 1.45 0 0 0 .469.07 1.64 1.64 0 0 0 1.537-1.2 1.353 1.353 0 0 0-.178-1.108zM9.868-20.127l9.458 3.044c.281.089.525.269.69.512.246.362.304.843.113 1.305a1.641 1.641 0 0 1-1.555 1.002 1.45 1.45 0 0 1-.385-.068l-9.458-3.044a1.31 1.31 0 0 1-.692-.515 1.373 1.373 0 0 1-.11-1.302 1.64 1.64 0 0 1 1.554-1.002c.13.005.26.028.385.068z" fill="#e7e8ea" fill-rule="evenodd"/><g transform="translate(20.15 -15.32)" clip-path="url(#q)" opacity=".23"><clipPath id="q"><path transform="translate(-17.9 -8.3)" d="M0 0h35.803v16.6H0V0z" stroke-linecap="round"/></clipPath><path d="M-15.01-8.267L17.526 2.206a.545.545 0 0 1 .36.67.633.633 0 0 1-.028.082L15.82 7.89a.679.679 0 0 1-.644.415.6.6 0 0 1-.16-.029L-17.518-2.196a.542.542 0 0 1-.36-.67.633.633 0 0 1 .028-.082l2.039-4.932a.668.668 0 0 1 .802-.387z" fill="#e7e8ea" fill-rule="evenodd" style="stroke:none;stroke-width:0;stroke-dasharray:none;stroke-linecap:butt;stroke-dashoffset:0;stroke-linejoin:miter;stroke-miterlimit:4;fill:#e7e8ea;fill-rule:evenodd;opacity:1"/></g><path d="M9.868-20.127l9.458 3.044c.281.089.525.269.69.512.246.362.304.843.113 1.305a1.641 1.641 0 0 1-1.555 1.002 1.45 1.45 0 0 1-.385-.068l-9.458-3.044a1.31 1.31 0 0 1-.692-.515 1.373 1.373 0 0 1-.11-1.302 1.64 1.64 0 0 1 1.554-1.002c.13.005.26.028.385.068zM24.184-15.247a1.31 1.31 0 0 0-.691-.512 1.45 1.45 0 0 0-.469-.07 1.64 1.64 0 0 0-1.47 1.004c-.192.462-.134.943.111 1.305.167.243.41.423.691.511.154.05.312.072.469.07a1.64 1.64 0 0 0 1.471-1.003c.19-.462.133-.944-.112-1.305zM7.453-19.36a1.53 1.53 0 0 0 .066-.197c.183-.698-.177-1.396-.869-1.619-.757-.244-1.626.174-1.94.934-.19.462-.133.943.112 1.305.167.243.41.423.691.512a1.45 1.45 0 0 0 .469.069 1.64 1.64 0 0 0 1.471-1.003zM28.526-13.847a1.31 1.31 0 0 0-.69-.512 1.45 1.45 0 0 0-.385-.068 1.638 1.638 0 0 0-1.555 1.002c-.19.46-.133.941.11 1.302.166.245.41.426.693.515a1.45 1.45 0 0 0 .469.069 1.64 1.64 0 0 0 1.537-1.2 1.353 1.353 0 0 0-.179-1.108zM32.878-12.446a1.31 1.31 0 0 0-.69-.512c-.758-.244-1.626.174-1.94.934a1.53 1.53 0 0 0-.067.197c-.182.699.178 1.397.87 1.62a1.45 1.45 0 0 0 .469.069 1.64 1.64 0 0 0 1.537-1.2 1.353 1.353 0 0 0-.179-1.108z" fill="#e7e8ea" fill-rule="evenodd"/><g transform="translate(44.59 -74.56)" clip-path="url(#r)"><clipPath id="r"><path transform="translate(-19.71 -10.5)" d="M0 0h39.427v20.995H0V0z" stroke-linecap="round"/></clipPath><path d="M-15.754-10.503L19.713.914l-3.96 9.58L-19.713-.924l3.96-9.58z" fill="#fafafa" fill-rule="evenodd" style="stroke:none;stroke-width:0;stroke-dasharray:none;stroke-linecap:butt;stroke-dashoffset:0;stroke-linejoin:miter;stroke-miterlimit:4;fill:#fafafa;fill-rule:evenodd;opacity:1"/></g><path d="M30.402-78.796a1.31 1.31 0 0 0-.69-.512 1.458 1.458 0 0 0-.465-.069 1.64 1.64 0 0 0-1.542 1.2c-.182.699.178 1.397.87 1.62.125.04.254.063.385.068a1.64 1.64 0 0 0 1.555-1.002c.19-.462.132-.943-.113-1.305zM59.912-69.298a1.31 1.31 0 0 0-.69-.512 1.458 1.458 0 0 0-.469-.07 1.64 1.64 0 0 0-1.471 1.004c-.191.462-.133.943.112 1.305.166.243.41.423.69.511.126.04.255.064.386.069a1.638 1.638 0 0 0 1.621-1.2 1.352 1.352 0 0 0-.179-1.107zM39.17-76.246l11.066 3.562c.283.088.527.27.693.514.244.362.3.842.11 1.303a1.638 1.638 0 0 1-1.554 1.002 1.45 1.45 0 0 1-.385-.069l-11.066-3.561a1.31 1.31 0 0 1-.693-.515 1.352 1.352 0 0 1-.177-1.104 1.53 1.53 0 0 1 .067-.198c.314-.76 1.182-1.178 1.94-.934zM40.083-69.092l4.161 1.34c.281.088.525.268.69.511.246.362.304.844.113 1.305a1.64 1.64 0 0 1-1.554 1.002 1.45 1.45 0 0 1-.386-.068l-4.161-1.34a1.31 1.31 0 0 1-.693-.514 1.353 1.353 0 0 1-.177-1.105 1.64 1.64 0 0 1 1.538-1.2c.157-.003.315.02.469.069zM36.084-61.124l1.135.365c.292.092.544.28.716.532.252.374.311.871.114 1.348l-.47 1.138a1.697 1.697 0 0 1-1.608 1.036 1.5 1.5 0 0 1-.399-.07l-1.135-.366c-.783-.252-1.155-1.093-.83-1.879l.47-1.138c.325-.786 1.223-1.218 2.007-.966zM23.314-65.233l1.135.365c.716.23 1.088.953.899 1.676-.018.07-.041.137-.069.204l-.47 1.138c-.325.786-1.223 1.218-2.007.966l-1.135-.366a1.355 1.355 0 0 1-.717-.533 1.42 1.42 0 0 1-.114-1.346l.47-1.138c.271-.655.94-1.064 1.61-1.037.135.006.269.03.398.07z" fill="#e7e8ea" fill-rule="evenodd"/><path d="M27.574-63.86l1.135.365c.292.092.544.28.716.532.216.321.29.732.183 1.144-.018.07-.041.137-.069.204l-.47 1.138a1.697 1.697 0 0 1-1.608 1.036 1.5 1.5 0 0 1-.399-.07l-1.135-.366c-.783-.252-1.155-1.093-.83-1.879l.47-1.138a1.697 1.697 0 0 1 1.608-1.037c.136.006.27.03.399.07z" fill="#6aaa64" fill-rule="evenodd"/><path d="M31.824-62.497l1.135.365c.292.092.544.28.716.532.252.374.311.871.114 1.348l-.47 1.138c-.325.786-1.223 1.218-2.007.966l-1.135-.366a1.355 1.355 0 0 1-.717-.533 1.4 1.4 0 0 1-.182-1.141c.018-.07.041-.138.069-.205l.47-1.138c.27-.655.94-1.064 1.608-1.037.136.006.27.03.399.07zM36.084-61.124l1.135.365c.292.092.544.28.716.532.252.374.311.871.114 1.348l-.47 1.138a1.697 1.697 0 0 1-1.608 1.036 1.5 1.5 0 0 1-.399-.07l-1.135-.366c-.783-.252-1.155-1.093-.83-1.879l.47-1.138c.325-.786 1.223-1.218 2.007-.966zM40.343-59.75l1.135.365c.292.091.544.279.716.532.216.32.29.732.183 1.143-.018.07-.041.138-.069.204l-.47 1.138c-.325.786-1.223 1.218-2.007.966l-1.135-.365c-.716-.23-1.088-.953-.9-1.675.02-.07.042-.138.07-.205l.47-1.137a1.697 1.697 0 0 1 1.526-1.038c.161-.002.323.02.48.071zM44.593-58.387l1.135.365c.716.23 1.088.953.899 1.676-.018.07-.041.137-.069.204l-.47 1.138a1.697 1.697 0 0 1-1.522 1.037 1.507 1.507 0 0 1-.485-.071l-1.135-.366a1.355 1.355 0 0 1-.717-.533 1.4 1.4 0 0 1-.182-1.141c.018-.07.04-.138.069-.205l.47-1.138a1.697 1.697 0 0 1 1.608-1.037c.136.006.27.03.399.07zM48.853-57.014l1.135.365c.716.23 1.088.953.9 1.676-.019.07-.042.137-.07.204l-.47 1.138a1.697 1.697 0 0 1-1.522 1.037 1.507 1.507 0 0 1-.485-.071l-1.134-.366a1.355 1.355 0 0 1-.718-.533 1.42 1.42 0 0 1-.113-1.346l.47-1.138c.325-.786 1.224-1.218 2.007-.966zM53.102-55.641l1.135.365c.29.091.543.278.715.53a1.4 1.4 0 0 1 .184 1.146c-.018.07-.04.137-.068.204l-.47 1.138c-.325.786-1.224 1.218-2.007.966l-1.135-.366a1.355 1.355 0 0 1-.717-.532 1.4 1.4 0 0 1-.183-1.142c.018-.07.041-.138.069-.205l.47-1.138a1.697 1.697 0 0 1 1.609-1.037c.135.006.27.03.398.07z" fill="#e7e8ea" fill-rule="evenodd"/><path d="M21.553-60.97l1.135.366c.292.092.544.28.716.532.252.374.311.871.114 1.348l-.47 1.138c-.325.785-1.223 1.218-2.007.966l-1.135-.366a1.355 1.355 0 0 1-.717-.533 1.4 1.4 0 0 1-.182-1.141c.018-.07.04-.138.068-.205l.47-1.138a1.697 1.697 0 0 1 1.523-1.038c.162-.002.326.02.485.072zM25.803-59.596l1.135.365c.292.092.544.28.716.532.252.374.311.871.114 1.348l-.47 1.138a1.694 1.694 0 0 1-1.608 1.036 1.5 1.5 0 0 1-.399-.07l-1.135-.366a1.355 1.355 0 0 1-.717-.533 1.42 1.42 0 0 1-.113-1.346l.47-1.138a1.697 1.697 0 0 1 1.522-1.038c.162-.002.326.02.485.072zM30.062-58.223l1.135.365c.292.092.544.28.716.532.216.321.29.732.183 1.144-.018.07-.041.137-.069.204l-.47 1.138a1.697 1.697 0 0 1-1.53 1.038 1.505 1.505 0 0 1-.477-.072l-1.135-.366c-.783-.252-1.155-1.093-.83-1.879l.47-1.138c.27-.655.94-1.064 1.608-1.037.136.006.27.03.399.07zM34.322-56.85l1.135.365c.716.23 1.088.953.899 1.676-.018.07-.041.137-.069.204l-.47 1.138a1.694 1.694 0 0 1-1.608 1.036 1.5 1.5 0 0 1-.399-.07l-1.135-.366a1.356 1.356 0 0 1-.717-.533 1.4 1.4 0 0 1-.182-1.141c.018-.07.04-.138.069-.205l.47-1.138a1.697 1.697 0 0 1 1.522-1.038c.162-.002.326.02.485.072zM38.572-55.487l1.135.365c.292.092.544.28.716.532.216.321.29.733.183 1.144-.018.07-.041.137-.069.204l-.47 1.138a1.697 1.697 0 0 1-1.608 1.036 1.5 1.5 0 0 1-.399-.07l-1.135-.366c-.715-.23-1.088-.952-.9-1.674.019-.07.042-.138.07-.205l.47-1.138a1.697 1.697 0 0 1 1.608-1.037c.136.006.27.03.399.07z" fill="#6aaa64" fill-rule="evenodd"/><path d="M42.832-54.114l1.135.365c.292.092.544.28.716.532.252.374.312.871.115 1.348l-.47 1.138a1.694 1.694 0 0 1-1.609 1.036 1.5 1.5 0 0 1-.398-.07l-1.135-.366a1.355 1.355 0 0 1-.718-.533 1.42 1.42 0 0 1-.113-1.346l.47-1.138a1.697 1.697 0 0 1 1.522-1.038c.163-.002.326.02.485.072zM47.081-52.74l1.135.365c.292.091.544.279.716.532.252.374.312.87.115 1.347l-.47 1.138a1.697 1.697 0 0 1-1.522 1.038 1.506 1.506 0 0 1-.485-.072l-1.135-.365a1.355 1.355 0 0 1-.717-.532 1.4 1.4 0 0 1-.183-1.143c.018-.07.041-.138.069-.204l.47-1.138c.27-.655.94-1.065 1.608-1.037.136.005.27.029.399.07zM51.35-51.378l1.136.366c.292.091.544.279.716.532.216.32.29.732.183 1.143-.018.07-.041.138-.069.204l-.47 1.138a1.694 1.694 0 0 1-1.608 1.037 1.5 1.5 0 0 1-.399-.07l-1.135-.366c-.716-.23-1.088-.953-.9-1.675.019-.07.042-.138.07-.205l.47-1.137a1.698 1.698 0 0 1 1.608-1.037c.136.005.27.029.399.07zM19.79-56.695l1.136.365c.292.092.544.28.716.532.252.374.311.871.114 1.348l-.47 1.138c-.325.786-1.223 1.218-2.007.966l-1.135-.366a1.356 1.356 0 0 1-.716-.532 1.42 1.42 0 0 1-.115-1.347l.47-1.138a1.697 1.697 0 0 1 1.523-1.038c.162-.002.326.02.485.072z" fill="#e7e8ea" fill-rule="evenodd"/><path d="M24.05-55.322l1.136.365c.292.092.544.28.716.532.252.374.311.871.114 1.348l-.47 1.138a1.697 1.697 0 0 1-1.53 1.038c-.16.001-.32-.022-.477-.072l-1.135-.366c-.783-.252-1.155-1.093-.83-1.879l.47-1.138a1.697 1.697 0 0 1 1.526-1.038 1.51 1.51 0 0 1 .48.072z" fill="#6aaa64" fill-rule="evenodd"/><path d="M28.31-53.96l1.136.366c.716.23 1.088.953.899 1.676-.018.07-.041.137-.069.204l-.47 1.138a1.697 1.697 0 0 1-1.526 1.038 1.51 1.51 0 0 1-.48-.072l-1.136-.366c-.783-.252-1.155-1.093-.83-1.879l.47-1.138a1.697 1.697 0 0 1 1.522-1.038c.162-.002.326.02.485.072zM32.56-52.586l1.136.365c.292.092.544.28.716.532.216.321.29.732.183 1.144-.018.07-.041.137-.069.204l-.47 1.138a1.694 1.694 0 0 1-1.608 1.036 1.5 1.5 0 0 1-.399-.07l-1.135-.366c-.783-.252-1.155-1.093-.83-1.879l.47-1.138a1.697 1.697 0 0 1 1.522-1.038c.162-.002.326.02.485.072zM36.82-51.213l1.135.365c.716.23 1.088.953.9 1.676-.019.07-.042.137-.07.204l-.47 1.138a1.697 1.697 0 0 1-1.522 1.038 1.506 1.506 0 0 1-.484-.072l-1.136-.366a1.355 1.355 0 0 1-.716-.532 1.42 1.42 0 0 1-.114-1.347l.47-1.138a1.697 1.697 0 0 1 1.528-1.038c.16-.002.322.021.479.072zM41.07-49.84l1.135.365c.716.23 1.088.953.9 1.676-.019.07-.042.137-.07.204l-.47 1.138a1.697 1.697 0 0 1-1.608 1.036 1.5 1.5 0 0 1-.398-.07l-1.136-.366a1.355 1.355 0 0 1-.716-.532 1.4 1.4 0 0 1-.183-1.142c.018-.07.041-.138.069-.205l.47-1.138a1.697 1.697 0 0 1 1.528-1.038c.16-.002.322.021.479.072zM45.33-48.477l1.135.365c.716.23 1.088.953.9 1.676-.02.07-.042.137-.07.204l-.47 1.138a1.694 1.694 0 0 1-1.608 1.036 1.5 1.5 0 0 1-.398-.07l-1.135-.366a1.355 1.355 0 0 1-.717-.532 1.4 1.4 0 0 1-.183-1.142c.018-.07.041-.138.069-.205l.47-1.138c.27-.655.94-1.064 1.609-1.037.135.006.269.03.398.07zM49.59-47.104l1.135.365c.292.092.544.28.716.532.252.374.311.871.114 1.348l-.47 1.138a1.694 1.694 0 0 1-1.608 1.036 1.5 1.5 0 0 1-.399-.07l-1.135-.366a1.355 1.355 0 0 1-.716-.532A1.42 1.42 0 0 1 47.113-45l.47-1.138c.27-.655.94-1.064 1.608-1.037.136.006.27.03.399.07zM18.03-52.431l1.135.365c.292.092.544.28.716.532.216.321.29.732.183 1.144-.018.07-.041.137-.069.204l-.47 1.138a1.697 1.697 0 0 1-1.53 1.038c-.16.001-.32-.022-.477-.072l-1.135-.366c-.783-.252-1.155-1.093-.83-1.879l.47-1.138a1.697 1.697 0 0 1 1.522-1.038c.162-.002.326.02.485.072z" fill="#e7e8ea" fill-rule="evenodd"/><path d="M22.29-51.068l1.135.365c.783.253 1.155 1.094.83 1.88l-.47 1.138a1.697 1.697 0 0 1-1.608 1.036 1.5 1.5 0 0 1-.399-.07l-1.135-.366c-.715-.23-1.088-.952-.9-1.674.019-.07.042-.138.07-.205l.47-1.138c.27-.655.94-1.064 1.608-1.037.136.006.27.03.399.07z" fill="#6aaa64" fill-rule="evenodd"/><path d="M26.539-49.695l1.135.365c.292.092.544.28.716.532.252.374.311.871.114 1.348l-.47 1.138a1.697 1.697 0 0 1-1.608 1.036 1.5 1.5 0 0 1-.399-.07l-1.135-.366a1.355 1.355 0 0 1-.716-.532 1.4 1.4 0 0 1-.183-1.142c.018-.07.04-.138.068-.205l.47-1.138a1.697 1.697 0 0 1 1.527-1.038 1.51 1.51 0 0 1 .48.072zM30.799-48.322l1.135.365c.292.092.544.28.716.532.252.374.311.871.114 1.348l-.47 1.138a1.697 1.697 0 0 1-1.526 1.038 1.506 1.506 0 0 1-.48-.072l-1.136-.366a1.355 1.355 0 0 1-.716-.532 1.4 1.4 0 0 1-.183-1.142c.018-.07.041-.138.069-.205l.47-1.138c.27-.655.94-1.064 1.608-1.037.136.006.27.03.399.07z" fill="#e7e8ea" fill-rule="evenodd"/><path d="M35.049-46.96l1.135.366c.716.23 1.088.953.9 1.676-.02.07-.042.137-.07.204l-.47 1.138a1.697 1.697 0 0 1-1.608 1.036 1.5 1.5 0 0 1-.398-.07l-1.135-.366a1.355 1.355 0 0 1-.717-.532 1.42 1.42 0 0 1-.114-1.347l.47-1.138a1.697 1.697 0 0 1 1.608-1.037c.136.006.27.03.399.07z" fill="#6aaa64" fill-rule="evenodd"/><path d="M39.31-45.586l1.134.365c.716.23 1.088.953.9 1.676-.019.07-.042.137-.07.204l-.47 1.138a1.697 1.697 0 0 1-1.522 1.038 1.507 1.507 0 0 1-.484-.072l-1.135-.366c-.716-.23-1.088-.952-.9-1.674.018-.07.041-.138.069-.205l.47-1.138a1.697 1.697 0 0 1 1.608-1.037c.136.006.27.03.4.07zM43.568-44.213l1.135.365c.292.092.544.28.716.532.216.321.29.732.183 1.144-.018.07-.041.137-.069.204l-.47 1.138a1.694 1.694 0 0 1-1.608 1.036 1.5 1.5 0 0 1-.399-.07l-1.135-.365a1.356 1.356 0 0 1-.716-.533 1.42 1.42 0 0 1-.114-1.347l.47-1.138a1.697 1.697 0 0 1 1.526-1.038c.16-.002.323.021.48.072zM47.818-42.84l1.135.365c.716.23 1.088.953.899 1.676-.018.07-.041.137-.069.204l-.47 1.138a1.697 1.697 0 0 1-1.522 1.038 1.51 1.51 0 0 1-.485-.072l-1.135-.366c-.715-.23-1.088-.952-.9-1.674.019-.07.042-.138.07-.205l.47-1.138a1.697 1.697 0 0 1 1.608-1.037c.136.006.27.03.399.07zM16.268-48.167l1.135.365c.784.252 1.155 1.094.83 1.88l-.47 1.138a1.697 1.697 0 0 1-1.608 1.036 1.5 1.5 0 0 1-.398-.07l-1.135-.366a1.356 1.356 0 0 1-.718-.533 1.42 1.42 0 0 1-.113-1.346l.47-1.138c.271-.655.94-1.064 1.61-1.037.134.006.268.03.397.07z" fill="#e7e8ea" fill-rule="evenodd"/><path d="M20.518-46.794l1.135.365c.292.092.544.28.716.532.216.321.29.732.183 1.144-.018.07-.041.137-.069.204l-.47 1.138a1.694 1.694 0 0 1-1.608 1.036 1.5 1.5 0 0 1-.399-.07l-1.135-.366c-.783-.252-1.155-1.093-.83-1.879l.47-1.138a1.697 1.697 0 0 1 1.522-1.038c.162-.002.326.02.485.072z" fill="#6aaa64" fill-rule="evenodd"/><path d="M24.778-45.421l1.135.365c.292.092.544.28.716.532.216.321.29.732.183 1.144-.018.07-.041.137-.069.204l-.47 1.138a1.694 1.694 0 0 1-1.608 1.036 1.5 1.5 0 0 1-.399-.07l-1.135-.366a1.355 1.355 0 0 1-.717-.533 1.4 1.4 0 0 1-.182-1.141c.018-.07.04-.138.068-.205l.471-1.138a1.697 1.697 0 0 1 1.522-1.038c.162-.002.326.02.485.072zM29.028-44.058l1.135.365c.716.23 1.088.953.9 1.676-.02.07-.042.137-.07.204l-.47 1.138a1.697 1.697 0 0 1-1.608 1.036 1.5 1.5 0 0 1-.399-.07l-1.135-.366a1.355 1.355 0 0 1-.717-.533 1.4 1.4 0 0 1-.182-1.141c.018-.07.041-.138.069-.205l.47-1.138c.27-.655.94-1.064 1.608-1.037.136.006.27.03.399.07z" fill="#787c7e" fill-rule="evenodd"/><path d="M33.287-42.685l1.135.365c.716.23 1.088.953.9 1.676-.02.07-.042.137-.07.204l-.47 1.138c-.324.786-1.223 1.218-2.007.966l-1.135-.366a1.355 1.355 0 0 1-.716-.532 1.4 1.4 0 0 1-.183-1.142c.018-.07.041-.138.069-.205l.47-1.138c.27-.655.94-1.064 1.61-1.037.134.006.268.03.397.07zM37.547-41.312l1.135.365c.716.23 1.088.953.9 1.676-.019.07-.042.137-.07.204l-.47 1.138a1.694 1.694 0 0 1-1.608 1.036 1.5 1.5 0 0 1-.399-.07L35.9-37.33a1.355 1.355 0 0 1-.716-.532 1.42 1.42 0 0 1-.114-1.347l.47-1.138c.325-.786 1.223-1.218 2.007-.966z" fill="#6aaa64" fill-rule="evenodd"/><path d="M41.797-39.95l1.135.366c.292.092.544.28.716.532.216.321.29.732.183 1.144-.018.07-.041.137-.069.204l-.47 1.138a1.694 1.694 0 0 1-1.608 1.036 1.5 1.5 0 0 1-.399-.07l-1.135-.366a1.355 1.355 0 0 1-.716-.532 1.4 1.4 0 0 1-.183-1.142c.018-.07.04-.138.068-.205l.47-1.138a1.697 1.697 0 0 1 1.61-1.037c.135.006.269.03.398.07zM46.057-38.576l1.135.365c.716.23 1.088.953.899 1.676-.018.07-.041.137-.069.204l-.47 1.138a1.694 1.694 0 0 1-1.608 1.036 1.5 1.5 0 0 1-.399-.07l-1.135-.366a1.356 1.356 0 0 1-.716-.532 1.4 1.4 0 0 1-.183-1.142c.018-.07.04-.138.068-.205l.471-1.138c.325-.786 1.223-1.218 2.007-.966zM14.497-43.893l1.135.365c.292.092.544.28.716.532.216.321.29.732.183 1.144-.018.07-.041.137-.069.204l-.47 1.138a1.694 1.694 0 0 1-1.608 1.036 1.5 1.5 0 0 1-.399-.07l-1.135-.366a1.356 1.356 0 0 1-.717-.533 1.4 1.4 0 0 1-.182-1.141c.018-.07.041-.138.069-.205l.47-1.138c.27-.655.94-1.064 1.608-1.037.135.006.27.03.399.07z" fill="#e7e8ea" fill-rule="evenodd"/><path d="M18.757-42.52l1.135.365c.292.092.544.28.716.532.216.321.29.732.183 1.144-.018.07-.041.137-.069.204l-.47 1.138c-.325.786-1.223 1.218-2.007.966l-1.135-.366c-.783-.252-1.155-1.093-.83-1.879l.47-1.138c.325-.786 1.223-1.218 2.007-.966z" fill="#6aaa64" fill-rule="evenodd"/><path d="M23.006-41.157l1.135.365c.716.23 1.088.953.9 1.676-.019.07-.042.137-.07.204l-.47 1.138a1.697 1.697 0 0 1-1.537 1.038c-.157 0-.316-.023-.47-.072l-1.134-.366a1.355 1.355 0 0 1-.717-.532 1.4 1.4 0 0 1-.183-1.142c.018-.07.041-.138.069-.205l.47-1.138a1.697 1.697 0 0 1 1.61-1.037 1.5 1.5 0 0 1 .397.07zM27.266-39.784l1.135.365c.292.092.544.28.716.532.216.321.29.732.183 1.144-.018.07-.04.137-.068.204l-.47 1.138a1.697 1.697 0 0 1-1.523 1.038 1.51 1.51 0 0 1-.485-.072l-1.135-.366c-.715-.23-1.087-.952-.899-1.674.018-.07.041-.138.069-.205l.47-1.138c.27-.655.94-1.064 1.609-1.037.135.006.27.03.398.07z" fill="#e7e8ea" fill-rule="evenodd"/><path d="M31.526-38.411l1.135.365c.716.23 1.088.953.9 1.676-.019.07-.042.137-.07.204l-.47 1.138c-.324.786-1.223 1.218-2.006.966l-1.135-.366a1.355 1.355 0 0 1-.718-.533 1.4 1.4 0 0 1-.182-1.141c.018-.07.041-.138.069-.205l.47-1.138a1.697 1.697 0 0 1 1.608-1.037c.136.006.27.03.399.07z" fill="#6aaa64" fill-rule="evenodd"/><path d="M35.776-37.048l1.135.365c.716.23 1.088.953.899 1.676-.018.07-.041.137-.069.204l-.47 1.138c-.325.786-1.223 1.218-2.007.966l-1.135-.366c-.715-.23-1.088-.952-.9-1.674.019-.07.042-.138.07-.205l.47-1.138c.325-.786 1.223-1.218 2.007-.966zM40.035-35.675l1.135.365c.292.092.545.28.716.532.252.374.312.871.115 1.348l-.47 1.138a1.697 1.697 0 0 1-1.608 1.036 1.5 1.5 0 0 1-.4-.07l-1.134-.366a1.355 1.355 0 0 1-.717-.532 1.4 1.4 0 0 1-.183-1.142c.018-.07.041-.138.069-.205l.47-1.138c.27-.655.94-1.064 1.61-1.037.134.006.268.03.397.07zM44.285-34.302l1.135.365c.292.092.544.28.716.533.252.373.311.87.114 1.347l-.47 1.138a1.697 1.697 0 0 1-1.522 1.038 1.51 1.51 0 0 1-.485-.072l-1.135-.366a1.355 1.355 0 0 1-.717-.533 1.42 1.42 0 0 1-.113-1.346l.47-1.138a1.697 1.697 0 0 1 1.522-1.038c.162-.002.326.02.485.072zM12.736-39.63l1.135.366c.292.092.544.28.716.532.217.321.29.732.183 1.144-.018.07-.041.137-.068.204l-.47 1.138a1.697 1.697 0 0 1-1.609 1.036 1.5 1.5 0 0 1-.398-.07l-1.135-.366a1.355 1.355 0 0 1-.717-.532 1.4 1.4 0 0 1-.183-1.142c.018-.07.041-.138.069-.205l.47-1.138c.27-.655.94-1.064 1.609-1.037.135.006.269.03.398.07zM16.985-38.256l1.135.365c.292.092.544.28.716.532.217.321.29.732.183 1.144-.018.07-.04.137-.068.204l-.47 1.138a1.694 1.694 0 0 1-1.609 1.036 1.5 1.5 0 0 1-.398-.07l-1.135-.366a1.355 1.355 0 0 1-.718-.533 1.4 1.4 0 0 1-.182-1.141c.018-.07.041-.138.069-.205l.47-1.138c.27-.655.94-1.064 1.609-1.037.135.006.269.03.398.07zM21.245-36.883l1.135.365c.292.092.544.28.716.532.252.374.312.871.115 1.348l-.47 1.138c-.326.786-1.224 1.218-2.008.966l-1.135-.366a1.355 1.355 0 0 1-.716-.532 1.4 1.4 0 0 1-.183-1.142c.018-.07.041-.138.069-.205l.47-1.138a1.697 1.697 0 0 1 1.526-1.038 1.51 1.51 0 0 1 .481.072zM25.505-35.51l1.135.365c.292.092.544.28.716.532.216.321.29.732.183 1.144-.018.07-.041.137-.068.204L27-32.127a1.694 1.694 0 0 1-1.609 1.036 1.5 1.5 0 0 1-.399-.07l-1.135-.366c-.783-.252-1.155-1.093-.83-1.879l.47-1.138c.27-.655.94-1.064 1.608-1.037.136.006.27.03.399.07z" fill="#e7e8ea" fill-rule="evenodd"/><path d="M29.754-34.147l1.135.365c.716.23 1.088.953.9 1.676-.019.07-.042.137-.07.204l-.47 1.138a1.694 1.694 0 0 1-1.608 1.036 1.5 1.5 0 0 1-.398-.07l-1.135-.366a1.355 1.355 0 0 1-.717-.532 1.42 1.42 0 0 1-.114-1.347l.47-1.138a1.697 1.697 0 0 1 1.609-1.037c.135.006.269.03.398.07z" fill="#6aaa64" fill-rule="evenodd"/><path d="M34.014-32.774l1.135.365c.292.092.544.28.716.532.252.374.311.871.114 1.348l-.47 1.138a1.694 1.694 0 0 1-1.608 1.036 1.5 1.5 0 0 1-.399-.07l-1.135-.366c-.715-.23-1.088-.952-.9-1.674.019-.07.042-.138.07-.205l.47-1.138a1.697 1.697 0 0 1 1.522-1.038c.162-.002.326.02.485.072zM38.264-31.401l1.135.365c.292.092.544.28.716.532.216.321.29.732.183 1.144-.018.07-.041.137-.069.204l-.47 1.138a1.694 1.694 0 0 1-1.608 1.036 1.5 1.5 0 0 1-.399-.07l-1.135-.366c-.783-.252-1.155-1.093-.83-1.879l.47-1.138a1.697 1.697 0 0 1 1.608-1.037c.135.006.27.03.399.07zM42.524-30.038l1.135.365c.292.092.544.28.716.532.216.321.29.732.183 1.144-.018.07-.041.137-.069.204l-.47 1.138c-.325.786-1.223 1.218-2.007.966l-1.135-.366a1.356 1.356 0 0 1-.716-.532 1.42 1.42 0 0 1-.114-1.347l.47-1.138c.27-.655.94-1.064 1.608-1.037.136.006.27.03.399.07zM10.964-35.356l1.135.365c.292.092.544.28.716.533.216.32.29.732.183 1.143-.018.07-.04.137-.068.204l-.47 1.138c-.325.786-1.224 1.218-2.008.966l-1.135-.366c-.715-.23-1.087-.952-.899-1.674.018-.07.041-.138.069-.205l.47-1.138c.27-.655.94-1.064 1.608-1.037.136.006.27.03.399.07zM15.224-33.983l1.135.365c.716.23 1.088.954.899 1.677-.018.069-.041.137-.068.203l-.47 1.138a1.697 1.697 0 0 1-1.523 1.038 1.51 1.51 0 0 1-.484-.072L13.578-30a1.356 1.356 0 0 1-.717-.533 1.4 1.4 0 0 1-.183-1.143c.019-.07.041-.138.069-.204l.47-1.138c.325-.786 1.223-1.218 2.007-.966zM19.484-32.62l1.135.366c.292.092.544.28.716.532.252.374.311.871.115 1.348l-.47 1.138A1.694 1.694 0 0 1 19.37-28.2a1.5 1.5 0 0 1-.399-.07l-1.135-.366c-.715-.23-1.087-.952-.899-1.674.018-.07.041-.138.069-.205l.47-1.138a1.697 1.697 0 0 1 1.608-1.037c.136.006.27.03.399.07zM23.733-31.247l1.135.365c.292.092.544.28.716.532.252.374.311.871.115 1.348l-.47 1.138a1.697 1.697 0 0 1-1.527 1.038 1.507 1.507 0 0 1-.48-.072l-1.136-.366a1.355 1.355 0 0 1-.716-.532 1.4 1.4 0 0 1-.183-1.142c.018-.07.041-.138.069-.205l.47-1.138c.325-.786 1.223-1.218 2.007-.966zM27.993-29.873l1.135.365c.783.253 1.155 1.094.83 1.88l-.47 1.138c-.325.786-1.223 1.218-2.007.966l-1.135-.366a1.356 1.356 0 0 1-.716-.532 1.42 1.42 0 0 1-.114-1.347l.47-1.138c.325-.786 1.223-1.218 2.007-.966zM32.243-28.5l1.135.365c.783.253 1.155 1.094.83 1.88l-.47 1.138a1.694 1.694 0 0 1-1.608 1.036 1.5 1.5 0 0 1-.399-.07l-1.135-.366c-.715-.23-1.088-.952-.9-1.674.019-.07.042-.138.07-.205l.47-1.138a1.697 1.697 0 0 1 1.522-1.038c.162-.002.326.02.485.072zM36.503-27.137l1.135.365c.292.092.544.28.716.532.252.374.311.871.114 1.348l-.47 1.138a1.694 1.694 0 0 1-1.608 1.036 1.5 1.5 0 0 1-.399-.07l-1.135-.366c-.783-.252-1.155-1.093-.83-1.879l.47-1.138a1.697 1.697 0 0 1 1.526-1.038c.16-.002.323.021.48.072zM40.762-25.764l1.135.365c.292.092.544.28.716.532.252.374.311.871.114 1.348l-.47 1.138a1.697 1.697 0 0 1-1.522 1.038 1.51 1.51 0 0 1-.485-.072l-1.135-.365a1.355 1.355 0 0 1-.717-.534 1.42 1.42 0 0 1-.113-1.346l.47-1.138c.325-.786 1.223-1.218 2.007-.966zM9.203-31.092l1.135.365c.783.253 1.155 1.094.83 1.88l-.47 1.138a1.697 1.697 0 0 1-1.525 1.038 1.507 1.507 0 0 1-.481-.072l-1.135-.366a1.355 1.355 0 0 1-.717-.532 1.4 1.4 0 0 1-.183-1.142c.018-.07.041-.138.069-.205l.47-1.138a1.697 1.697 0 0 1 1.526-1.038 1.51 1.51 0 0 1 .481.072zM13.462-29.73l1.135.366c.292.092.544.28.716.532.252.374.311.871.114 1.348l-.47 1.138a1.697 1.697 0 0 1-1.53 1.038c-.16.001-.32-.022-.477-.072l-1.135-.366a1.355 1.355 0 0 1-.716-.532 1.42 1.42 0 0 1-.115-1.347l.47-1.138a1.697 1.697 0 0 1 1.527-1.038c.16-.002.323.021.48.072zM17.712-28.356l1.135.365c.783.253 1.155 1.094.83 1.88l-.47 1.138a1.694 1.694 0 0 1-1.608 1.036 1.5 1.5 0 0 1-.399-.07l-1.135-.366a1.355 1.355 0 0 1-.716-.532 1.42 1.42 0 0 1-.114-1.347l.47-1.138c.27-.655.94-1.064 1.608-1.037.136.006.27.03.399.07zM21.972-26.983l1.135.365c.716.23 1.088.953.899 1.676-.018.07-.041.137-.069.204l-.47 1.138a1.697 1.697 0 0 1-1.608 1.036 1.5 1.5 0 0 1-.399-.07L20.325-23a1.355 1.355 0 0 1-.717-.533 1.42 1.42 0 0 1-.113-1.346l.47-1.138a1.697 1.697 0 0 1 1.608-1.037c.136.006.27.03.399.07zM26.222-25.61l1.135.365c.292.092.544.28.716.532.216.321.29.732.183 1.144-.018.07-.041.137-.069.204l-.47 1.138a1.697 1.697 0 0 1-1.528 1.038 1.506 1.506 0 0 1-.479-.072l-1.135-.366a1.355 1.355 0 0 1-.717-.533 1.4 1.4 0 0 1-.182-1.141c.018-.07.04-.138.069-.205l.47-1.138a1.697 1.697 0 0 1 1.608-1.037c.135.006.27.03.399.07zM30.49-24.247l1.136.365c.292.092.544.28.716.532.216.321.29.732.183 1.144-.018.07-.041.137-.069.204l-.47 1.138a1.697 1.697 0 0 1-1.608 1.036 1.5 1.5 0 0 1-.399-.07l-1.135-.366c-.783-.252-1.155-1.093-.83-1.879l.47-1.138a1.697 1.697 0 0 1 1.608-1.037c.136.006.27.03.399.07zM34.75-22.874l1.136.365c.292.092.544.28.716.532.252.374.311.871.114 1.348l-.47 1.138a1.697 1.697 0 0 1-1.526 1.038 1.506 1.506 0 0 1-.48-.072l-1.136-.366a1.355 1.355 0 0 1-.716-.532 1.4 1.4 0 0 1-.183-1.142c.018-.07.041-.138.069-.205l.47-1.138c.27-.655.94-1.064 1.608-1.037.136.006.27.03.399.07zM39-21.501l1.136.365c.292.092.544.28.716.532.216.321.29.732.183 1.144-.018.07-.041.137-.069.204l-.47 1.138a1.694 1.694 0 0 1-1.608 1.036 1.5 1.5 0 0 1-.399-.07l-1.135-.366a1.356 1.356 0 0 1-.716-.532 1.42 1.42 0 0 1-.114-1.347l.47-1.138a1.697 1.697 0 0 1 1.522-1.038c.162-.002.326.02.485.072z" fill="#e7e8ea" fill-rule="evenodd"/><path d="M9.681-74.238c-.183 0 4.31-2.2 6.503-3.034.203-.078.406-.155.61-.23 1.58-.58 2.274-.65 1.57 1.395-.107.204-.27.371-.472.482-1.618 1.02-6.558 1.387-8.206 1.387H9.68z" fill="#fdd3c9" fill-rule="evenodd"/><path d="M50.924-9.176l-.183 1.198-.962 6.28a4.41 4.41 0 0 1-.068.024c-.38.131-2.268.746-3.727.55a3.693 3.693 0 0 1-.06-.009c-2.48-.375-3.06-2.53-2.854-4.936.024-.281.068-.56.13-.836.315-1.402 1.117-2.826 2.308-3.244h.002c.235-.085.487-.128.753-.124 1.405.02 4.661 1.097 4.661 1.097zm-1.146 7.478c-.001 0-.002 0-.003.002" fill="#ffbd94" fill-rule="evenodd"/><path d="M50.974-7.997c.194-.025.386-.068.572-.128a3.761 3.761 0 0 0-.327-.653 2.528 2.528 0 0 0-.3-.391 11.35 11.35 0 0 0-.043-.014c-.346-.113-2.763-.889-4.195-1.053a4.341 4.341 0 0 0-.461-.03c-.253 0-.492.044-.716.124.69.39 1.444.866 1.768 1.236l.012.014c.465.508 1.811.936 3.053.936a4.991 4.991 0 0 0 .637-.041z" fill="#8c4a2a" fill-rule="evenodd"/><path d="M46.254-11.127c.048.135.105.266.171.393 1.177 2.267 4.49 1.562 4.49 1.562s6.893-8.25 5.751-9.854l-.005-.005v-.002a1.405 1.405 0 0 0-.101-.105c-1.29-1.027-3.653-.912-5.76-.516-.504.095-1.004.206-1.5.333-2.087.53-3.621 4.36-3.287 7.137.04.36.122.715.241 1.057z" fill="#ffa080" fill-rule="evenodd"/><path d="M52.942-23.268l-.02-.006s-2.147-1.84-.946-5.49l.035-.106c1.036-3.015 1.714-5.226 5.145-4.705.005 0 .009 0 .013.002.635.096 1.66.224 2.4.57.19.085.367.196.525.332.072.064.142.13.21.2.675.682 1.4 1.774 1.561 2.291a.71.71 0 0 1 .032.145l.016.157c.117 1.033.54 4.195-2.863 5.95-.2.103-.403.197-.611.283-1.729.713-3.635.69-5.295.413a14.7 14.7 0 0 1-.202-.036z" fill="#ffbd94" fill-rule="evenodd"/><path d="M55.302-31.717a1.492 1.492 0 0 0-.016-.017c2.928-.25 5.112 1.654 4.51 4.248-.07.313-.2.61-.383.873-1.151 1.651-4.061 1.418-4.127 1.157-.064-.257.83-.952 1.257-2.201a4.08 4.08 0 0 0 .172-.694c.018-.12.027-.243.027-.365 0-1.464-1.28-2.835-1.44-3zM49.829-15.935s1.315 1.127 1.353 2.744v.057c0 1.58-1.542 2.428-1.579 2.8a.04.04 0 0 0 0 .003c0 .294 3.424-.41 4.748-2.225.329-.432.51-.958.514-1.5a3.275 3.275 0 0 0-.118-.907c-.58-2.02-3.141-1.985-4.204-1.686-1.133.318-.766.67-.72.71a.126.126 0 0 0 .006.004zM46.19-7.966c.271.3 1.127 1.576.939 2.44a2.072 2.072 0 0 1-.291.658c-.374.587-.94 1.075-.912 1.297.034.271 2.63.359 3.474-.56a.993.993 0 0 0 .21-.342c.114-.33.172-.676.171-1.025 0-.76-.263-1.518-.766-2.032a2.107 2.107 0 0 0-.608-.436c-1.203-.567-2.515-.326-2.218 0z" fill="#fdd3c9" fill-rule="evenodd"/><path d="M4.702-.02s-1.034-.822-2.2-.732A2.782 2.782 0 0 0 .048 1.306a3.98 3.98 0 0 0-.175 1.287C-.13 3.76.515 3.673 2.38 3.8l.31.022c.038.003.076.004.115.005C4.75 3.837 4.705.14 4.702-.015a.98.98 0 0 0 0-.005z" fill="#ea9078" fill-rule="evenodd"/><path d="M18.08 2.179L7.366.093a3.34 3.34 0 0 0-.043-.014C6.818-.082 1.96-1.549.839 1.134l-.013.03c-.074.184-.14.372-.194.562-.693 2.446 1.2 3.384 4.141 4.907 3.093 1.602 6.89 5.287 8.951 6.364a4.89 4.89 0 0 0 .344.165c1.316.6 5.627 2.381 6.374 2.928.04.026.076.06.104.099.206.377.827.37-4.698-1.194-.421-.12-.843-.238-1.264-.355l-6.88-1.918.17 7.048 18.212 3.214 4.203-9.067 4.27-3.308s-1.19-2.107-4.325-3.219c-2.808-.996-10.808-4.602-12.004-5.143l-.15-.068z" fill="#ffa080" fill-rule="evenodd"/><path d="M17.9 60.09l-3.607 4.68S3.015 69.128-1.44 69.918a11.917 11.917 0 0 1-.303.051 1.784 1.784 0 0 0-.037.009c-4.494.92-22.8 15.92-22.8 15.92-.039.015-.079.03-.12.043-1.122.386-9.897 3.133-16.18-2.974a14.727 14.727 0 0 1-.961-1.03 16.62 16.62 0 0 1-1.381-1.89 19.585 19.585 0 0 1-1.116-2.042 23.429 23.429 0 0 1-.868-2.092 38.535 38.535 0 0 1-.703-2.13 30.983 30.983 0 0 1-.661-2.621c-1.617-7.858.686-12.884 1.126-13.746.022-.045.045-.089.07-.133l.127-.056c.472-.209 2.23-1.007 4.861-2.417.715-.384 1.426-.775 2.132-1.174a87.192 87.192 0 0 0 3.021-1.786c3.155-1.954 6.436-4.291 8.993-6.825l.104-.103a30.637 30.637 0 0 0 1.714-1.86c4.739-5.592 6.084-11.363 6.666-15.243.09-.613.173-1.227.248-1.842a7.969 7.969 0 0 1 .582-2.035c1.62-3.898 6.054-8.822 8.72-12.059C-5.574 8.688.293 4.786 3.613.27A14.533 14.533 0 0 0 5.26-2.534c2.238-5.145 5.51-10.29 7.619-11.69.197-.136.414-.244.643-.318a5.85 5.85 0 0 1 .585-.136c2.54-.473 8.643-.33 8.276 5.283a8.155 8.155 0 0 1-.03.34C21.716-3.09 18.9 2.065 16.99 4.766c-.15.213-.304.423-.462.63a11.89 11.89 0 0 0-.385.538c-1.772 2.614-3.619 7.208-3.9 8.467a2.641 2.641 0 0 0-.061.41c-.067 1.092.821 1.771 4.8 1.986l.222.011c4.662.226 5.414.262 5.377-.94v-.008c-.001-.167.087-2.251 1.352-3.902.259-.33.55-.634.868-.907 1.352-1.186 3.125-2.027 3.06-2.213a.048.048 0 0 0-.037-.027c-.225-.058-1.385.361-2.545 1.052a9.558 9.558 0 0 0-1.27.892c-1.435 1.215-2.505 2.66-2.774 1.237a28.379 28.379 0 0 0-.02-.097c-.258-1.33-.517-2.211.229-3.276l.065-.09a1.33 1.33 0 0 1 .543-.387c1.408-.618 4.698-.5 6.603-.25.18.024.36.051.54.082.745.116 1.483.272 2.212.466a5.276 5.276 0 0 1 2.391 1.294A9.068 9.068 0 0 1 35.2 11.62c.425.745.734 1.491.93 2.1.065.2.122.403.17.608.423 1.832 1.64 6.179 2.596 8.386.06.138.121.274.186.41.203.427.357.877.46 1.34.463 2.014.179 4.676-1.513 6.852-2.105 2.708-1.954 3.685-1.278 6.54.097.417.155.842.173 1.27.03.65-.019 1.336-.15 2.02a7.655 7.655 0 0 1-3.73 5.443c-2.995 1.567-3.796 1.713-4.354 3.973-.027.112-.053.225-.078.338-.542 2.497-1.818 3.636-3.571 4.775a28.467 28.467 0 0 1-.216.139c-1.86 1.181-4.331 2.7-4.952 3.487a1.798 1.798 0 0 1-.69.515 3.538 3.538 0 0 1-1.283.276z" fill="#ffbd94" fill-rule="evenodd"/><path d="M17.89 60.092l-3.607 4.68s-11.672 4.51-15.957 5.185a1.175 1.175 0 0 0-.115.022 6.51 6.51 0 0 0-1.34.483C-9.114 73.222-24.587 85.9-24.587 85.9s-10.533 3.964-17.262-3.962a16.268 16.268 0 0 1-1.381-1.89 19.581 19.581 0 0 1-1.116-2.041 23.426 23.426 0 0 1-.867-2.092 38.49 38.49 0 0 1-.703-2.13l.132-.061c9.107-4.195 31.479-13.805 34.796-17.367.111-.116.21-.244.295-.38 1.166-1.981 2.337-3.958 3.513-5.933l.009-.016c1.179-1.98 2.354-3.964 3.525-5.95.32-.483.724-.906 1.192-1.249 4.506-3.566 18.553-8.36 23.87-11.7.32-.197.63-.41.93-.638 7.871-6.033 13.268-12.592 16.728-7.367.202.428.357.877.46 1.34a8.343 8.343 0 0 1-.906 5.951 8.02 8.02 0 0 1-.607.902c-2.106 2.708-1.954 3.685-1.278 6.54.096.417.154.841.173 1.269.03.651-.02 1.336-.15 2.021a7.655 7.655 0 0 1-3.73 5.443c-2.995 1.567-3.797 1.712-4.354 3.973-.028.112-.054.224-.078.337-.543 2.497-1.818 3.636-3.572 4.776a28.47 28.47 0 0 1-.215.138c-1.86 1.182-4.332 2.7-4.952 3.487a1.798 1.798 0 0 1-.69.515 3.536 3.536 0 0 1-1.284.276z" fill="#ffa080" fill-rule="evenodd"/><path d="M14.351-15.752s2.105-2.105 3.91-1.654c.46.117.909.28 1.338.486 1.146.543 1.993 1.267 2.27 1.544.026.027.05.058.07.09.373.57.897 2.791-.012 4.608a4.204 4.204 0 0 1-.063.12c-1.05 1.952-1.803 3.75-3.98 2.249a24.466 24.466 0 0 0-1.157-.756c-1.407-.857-2.418-1.214-3.282-1.214-.074 0-.148.003-.222.008a2.547 2.547 0 0 1-.184.007c-1.031 0-1.74-.66-.887-1.992a387.308 387.308 0 0 0 2.199-3.496z" fill="#fdd3c9" fill-rule="evenodd"/><path d="M6.902-2.52s3.381-.185 6.165 1.092c.669.32 1.297.72 1.871 1.189 1.435 1.138 2.391 2.352 2.356 1.773a54.349 54.349 0 0 0-.197-.398C16.124-.803 15.584-1.459 13.27-2.5c-2.937-1.322-7.882-.189-6.392-.023l.023.002zM9.379-5.867c.012.01.024.018.038.024.05.026.1.047.154.064.838.285 3.448.503 4.15.867l.013.007c1.167.61 2.843 2.1 3.366 1.776a1.89 1.89 0 0 0-.094-.203c-.394-.738-1.343-1.475-2.28-1.894a4.991 4.991 0 0 0-.519-.198c-1.406-.438-5.171-.716-4.828-.443z" fill="#ffa080" fill-rule="evenodd"/></g></g></g></g></svg>