<svg xmlns="http://www.w3.org/2000/svg" width="32.994" height="29.987" viewBox="1.503 1.503 32.994 29.987"><path d="M22.5 1.503H9.001a2.984 2.984 0 0 0-2.152.907 2.965 2.965 0 0 0-.608.923l-4.529 10.57a2.962 2.962 0 0 0-.21 1.095v2.998c0 1.65 1.35 3 3 3h9.463l-1.425 6.851-.045.48c0 .615.255 1.185.66 1.59l1.59 1.574 9.883-9.881a2.974 2.974 0 0 0 .86-1.875 3.067 3.067 0 0 0 .01-.24V4.503c0-1.65-1.35-2.999-3-2.999Zm0 17.993-6.51 6.507L18 17.996H4.503v-2.998L9.002 4.502h13.497v14.994Zm11.997 0h-5.999V1.503h5.999v17.993Z" fill="#c94848" fill-rule="evenodd" data-name="Path 1134"/></svg>