<svg width="90" height="90" xmlns="http://www.w3.org/2000/svg"><g><path d="M0 0h90v90H0V0z" fill="none"/><path d="M53 35.5a5.5 5.5 0 1 1 11 0 5.5 5.5 0 0 1-11 0zM36.243 39.39A5.278 5.278 0 0 0 38 35.5c0-1.459-.632-2.858-1.757-3.89C35.117 30.58 33.59 30 32 30c-1.591 0-3.117.58-4.243 1.61A5.278 5.278 0 0 0 26 35.5c0 1.459.632 2.858 1.757 3.89C28.883 40.42 30.41 41 32 41c1.591 0 3.117-.58 4.243-1.61z" fill="#feba38" fill-rule="evenodd"/><path d="M44.962 7.5C24.262 7.51 7.49 24.3 7.5 45c0 20.7 16.762 37.5 37.462 37.5C65.7 82.5 82.5 65.7 82.5 45 82.488 24.28 65.683 7.491 44.962 7.5zM45 75c-16.575 0-30-13.425-30-30s13.425-30 30-30 30 13.425 30 30-13.425 30-30 30zm-19.2-9.375h6.262c2.588-4.462 7.388-7.5 12.938-7.5a14.79 14.79 0 0 1 10.07 3.945 15.541 15.541 0 0 1 2.867 3.555H64.2C61.2 57.937 53.737 52.5 45 52.5a20.607 20.607 0 0 0-19.2 13.125z" fill="#ffba38" fill-rule="evenodd"/></g></svg>