<svg xmlns="http://www.w3.org/2000/svg" width="27" height="31.5"><path d="m24.045 9.585 2.13-2.13A16.573 16.573 0 0 0 24.06 5.34l-2.13 2.13a13.447 13.447 0 0 0-7.966-2.962A13.616 13.616 0 0 0 13.5 4.5 13.501 13.501 0 0 0 0 18a13.491 13.491 0 0 0 13.5 13.5A13.491 13.491 0 0 0 27 18a13.41 13.41 0 0 0-1.89-6.874 13.634 13.634 0 0 0-1.065-1.541ZM3 18a10.492 10.492 0 0 0 10.5 10.5A10.492 10.492 0 0 0 24 18c0-5.805-4.695-10.5-10.5-10.5A10.492 10.492 0 0 0 3 18ZM18 0H9v3h9V0Zm-6 19.5h3v-9h-3v9Z" fill="#787c7e" fill-rule="evenodd" data-name="Path 1146"/></svg>