<svg xmlns="http://www.w3.org/2000/svg" width="32.994" height="29.987" viewBox="1.503 1.503 32.994 29.987"><path d="M13.5 31.49h13.498a2.984 2.984 0 0 0 2.152-.907 2.965 2.965 0 0 0 .608-.922l4.529-10.57a2.962 2.962 0 0 0 .21-1.095v-2.999c0-1.649-1.35-2.998-3-2.998h-9.463l1.425-6.852.045-.48c0-.615-.255-1.185-.66-1.59l-1.59-1.574-9.883 9.881a2.974 2.974 0 0 0-.86 1.875 3.067 3.067 0 0 0-.01.24v14.993c0 1.65 1.35 2.999 3 2.999Zm0-17.992 6.51-6.507L18 14.997h13.497v3l-4.499 10.495H13.501V13.498Zm-11.997 0h5.999v17.993H1.503V13.498Z" fill="#6aaa64" fill-rule="evenodd" data-name="Path 1134"/></svg>