<svg xmlns="http://www.w3.org/2000/svg" width="27" height="27" viewBox="4.5 4.5 27 27"><path d="M28.5 7.5h-3v-3h-15v3h-3c-1.65 0-3 1.35-3 3V12c0 3.825 2.88 6.945 6.585 7.41a7.514 7.514 0 0 0 5.415 4.44l-3 4.65h-3v3h15v-3h-3l-3-4.65a7.514 7.514 0 0 0 5.415-4.44C28.62 18.945 31.5 15.825 31.5 12v-1.5c0-1.65-1.35-3-3-3Zm-15 9v-9h9v9c0 2.475-2.025 4.5-4.5 4.5a4.513 4.513 0 0 1-4.5-4.5Zm12-.27V10.5h3V12a4.516 4.516 0 0 1-3 4.23ZM7.5 12v-1.5h3v5.73a4.516 4.516 0 0 1-3-4.23Z" fill="#787c7e" fill-rule="evenodd" data-name="Path 1144"/></svg>