<svg width="90" height="90" xmlns="http://www.w3.org/2000/svg"><g><path d="M0 0h90v90H0V0z" fill="none"/><path d="M71.454 18.542h-7.522V11.02H26.324v7.522h-7.522c-4.137 0-7.522 3.385-7.522 7.521v3.761c0 9.59 7.22 17.413 16.51 18.58 2.37 5.64 7.447 9.89 13.577 11.131v11.66H26.324v7.52h37.608v-7.52H48.89v-11.66a18.84 18.84 0 0 0 13.577-11.132c9.289-1.166 16.51-8.988 16.51-18.579v-3.76c0-4.137-3.385-7.522-7.522-7.522zM33.845 41.107V18.542h22.566v22.565c0 6.205-5.078 11.283-11.283 11.283-6.205 0-11.283-5.078-11.283-11.283zm30.087-.677V26.063h7.522v3.761c0 4.89-3.159 9.026-7.522 10.606zm-45.13-10.606v-3.76h7.522V40.43a11.322 11.322 0 0 1-7.522-10.606z" fill="#ffba38" fill-rule="evenodd"/></g></svg>